<?xml version="1.0" encoding="utf-8"?>
<svg viewBox="1.077 0.535 498.722 498.351" width="498.722" height="498.351" xmlns="http://www.w3.org/2000/svg">
  <clipPath id="p.0">
    <path d="m0,0l960,0l0,960l-960,0l0,-960z" clip-rule="nonzero" id="svg_1"/>
  </clipPath>
  <circle stroke-dasharray="5,2,2,2,2,2" stroke-width="0" transform="matrix(1, 0, 0, 0.999256, -228.069733, -174.300903)" cx="478.508" cy="424.327" r="249.361" stroke=" rgb(0, 0, 0)" fill=" rgb(0, 85, 210)" id="svg_2"/>
  <g stroke-width="0" clip-path="url(#p.0)" transform="matrix(0.467495, 0, 0.000681, 0.390126, 82.315788, 43.410282)" id="svg_3" style="">
    <g transform="matrix(3.99391 0 0 3.90574 39.1559 45.7375)" id="svg_4">
      <g transform="matrix(1, 0, 0, 1, -1.131865, -6.228964)" id="svg_5">
        <path d="M 33.995 10.827 C 31.269 12.768 25.709 17.971 23.603 20.572 C 19.546 25.583 16.089 28.799 13.342 34.632 C 11.937 37.615 8.886 43.337 7.248 49.806 C 5.364 57.248 4.582 64.74 4.246 67.093 C 3.957 69.116 3.746 71.974 3.597 74.665 C 3.48 76.79 3.496 82.082 3.56 86.984 C 3.616 91.264 3.707 95.247 3.776 96.563 C 3.974 100.361 4.533 104.364 4.533 104.364 C 4.533 104.364 5.106 111.569 6.794 120.252 C 12.065 147.37 14.522 152.293 16.389 159.274 C 18.199 166.04 25.035 190.096 25.407 197.593 C 25.927 208.093 23.924 218.456 23.924 218.456 C 23.924 218.456 23.371 220.832 23.039 221.967 C 21.852 226.021 19.364 234.025 19.364 234.025 C 19.364 234.025 18.583 235.953 19.316 236.963 C 19.814 237.649 20.852 237.695 20.852 237.695 L 34.031 237.991 C 34.031 237.991 37.418 238.121 39.354 236.875 C 41.1 235.751 44.166 223.282 44.463 221.145 C 45.414 214.302 45.832 201.602 45.832 201.602 L 60.067 204.713 C 60.067 204.713 74.158 206.347 74.206 206.347 C 74.254 206.347 86.213 206.347 86.261 206.347 C 86.286 206.347 94.381 206.488 101.405 204.603 C 107.878 202.866 113.326 199.091 113.326 199.091 C 113.326 199.091 112.796 208.072 112.961 212.561 C 113.189 218.766 114.412 229.276 115.118 234.971 C 115.416 237.378 115.176 237.395 116.177 238.269 C 117.017 239.002 118.966 238.896 118.966 238.896 L 133.637 238.769 C 133.637 238.769 135.146 238.463 135.904 237.627 C 136.739 236.707 136.693 235.027 136.693 235.027 L 135.516 221.767 L 135.307 199.956 C 135.307 199.956 144.275 214.229 150.182 220.143 C 153.375 223.34 154.926 225.434 160.554 229.493 C 165.95 233.385 169.223 234.762 173.921 236.59 C 177.954 238.159 182.774 238.622 186.621 239.275 C 189.288 239.727 194.515 239.548 195.502 237.029 C 196.965 233.298 185.117 230.146 176.637 222.148 C 169.069 215.011 168.208 212.428 164.687 206.293 C 161.937 201.501 156.33 190.154 156.33 190.154 L 141.884 155.682 C 141.884 155.682 137.245 144.455 134.155 139.25 C 131.883 135.424 129.835 132.101 126.269 128.478 C 123.667 125.834 119.98 123.036 113.924 119.781 C 93.982 109.064 72.794 114.47 62.179 113.134 C 55.501 112.293 48.903 109.056 43.903 104.55 C 43.419 104.114 37.803 99.107 34.966 93.278 C 32.46 88.13 31.046 83.064 31.046 83.064 C 31.046 83.064 28.63 75.662 28.492 68.59 C 28.401 63.929 29.271 59.424 29.775 57.309 C 30.295 55.129 32.562 46.285 38.919 41.546 C 45.281 36.803 55.152 36.205 57.306 36.183 C 64.205 36.114 70.57 36.049 70.57 36.049 C 70.57 36.049 78.099 36.636 80.862 34.358 C 83.245 32.393 83.566 29.399 83.718 26.314 C 83.906 22.48 83.695 18.296 81.795 14.961 C 80.001 11.812 76.566 8.687 73.436 6.861 C 71.605 5.792 68.16 3.849 64.662 2.876 C 61 1.857 57.282 1.831 55.425 1.761 C 53.514 1.689 48.916 2.37 44.345 4.397 C 40.183 6.242 36.043 9.369 33.995 10.827 Z" stroke=" rgb(0, 0, 0)" fill-rule=" nonzero" fill=" rgb(255, 255, 255)" id="svg_6"/>
      </g>
    </g>
  </g>
</svg>