<?xml version="1.0" encoding="utf-8"?>
<svg viewBox="2 1 176 176" width="176" height="176" xmlns="http://www.w3.org/2000/svg" xmlns:bx="https://boxy-svg.com">
  <clipPath id="p.0">
    <path d="m0,0l960,0l0,960l-960,0l0,-960z" clip-rule="nonzero" id="svg_1"/>
  </clipPath>
  <circle stroke-dasharray="5,2,2,2,2,2" stroke-width="0" cx="90" cy="89" r="88" stroke=" rgb(0, 0, 0)" fill=" rgb(0, 85, 210)" id="svg_2" style="paint-order: stroke;" bx:origin="0.488764 0.488889"/>
  <g stroke-width="0" clip-path="url(#p.0)" transform="matrix(0.171557, 0, 0.000261, 0.146661, 33.869011, 27.575718)" id="svg_3" style="" bx:origin="0.429908 0.524534">
    <g transform="matrix(3.99391 0 0 3.90574 39.1559 45.7375)" id="svg_4">
      <g transform="matrix(1, 0, 0, 1, -1.131865, -6.228964)" id="svg_5">
        <path d="M 28.016 9.048 C 25.825 10.608 21.355 14.791 19.662 16.882 C 16.401 20.909 13.622 23.495 11.414 28.184 C 10.284 30.582 7.831 35.182 6.516 40.382 C 5.001 46.365 4.372 52.387 4.102 54.279 C 3.869 55.905 3.7 58.202 3.581 60.365 C 3.486 62.074 3.499 66.328 3.55 70.268 C 3.595 73.71 3.669 76.91 3.724 77.969 C 3.883 81.022 4.333 84.239 4.333 84.239 C 4.333 84.239 4.793 90.032 6.15 97.012 C 10.387 118.811 12.363 122.769 13.863 128.381 C 15.317 133.819 20.814 153.157 21.113 159.184 C 21.531 167.625 19.92 175.955 19.92 175.955 C 19.92 175.955 19.476 177.865 19.209 178.778 C 18.254 182.036 16.255 188.47 16.255 188.47 C 16.255 188.47 15.626 190.02 16.216 190.832 C 16.616 191.383 17.45 191.421 17.45 191.421 L 28.045 191.659 C 28.045 191.659 30.767 191.763 32.324 190.762 C 33.728 189.858 36.192 179.834 36.431 178.116 C 37.195 172.615 37.532 162.407 37.532 162.407 L 48.975 164.907 C 48.975 164.907 60.303 166.221 60.341 166.221 C 60.38 166.221 69.993 166.221 70.031 166.221 C 70.051 166.221 76.558 166.334 82.205 164.819 C 87.409 163.423 91.788 160.388 91.788 160.388 C 91.788 160.388 91.362 167.607 91.494 171.216 C 91.677 176.204 92.66 184.653 93.229 189.23 C 93.468 191.166 93.275 191.179 94.079 191.882 C 94.755 192.471 96.322 192.385 96.322 192.385 L 108.116 192.284 C 108.116 192.284 109.329 192.037 109.938 191.366 C 110.609 190.626 110.572 189.276 110.572 189.276 L 109.625 178.617 L 109.458 161.083 C 109.458 161.083 112.07 164.52 113.405 166.171 C 114.739 167.822 117.465 170.987 117.465 170.987 C 117.465 170.987 119.035 172.796 120.325 173.857 C 121.801 175.07 123.247 176.31 123.247 176.31 C 123.247 176.31 125.54 177.697 126.643 178.359 C 127.746 179.021 128.782 179.624 129.971 180.116 C 130.775 180.449 132.002 180.781 133.037 181.045 C 134.368 181.385 137.071 181.889 137.071 181.889 C 137.071 181.889 139.276 182.176 140.378 182.212 C 141.48 182.248 143.684 182.103 143.684 182.103 C 143.684 182.103 145.7 181.748 146.689 181.414 C 147.678 181.08 149.62 180.098 149.62 180.098 L 151.477 178.962 L 153.186 177.413 L 154.476 176.052 L 155.766 174.44 L 158.567 169.732 L 152.185 172.285 C 152.185 172.285 149.969 172.727 148.861 172.759 C 148 172.784 146.278 172.75 146.278 172.75 L 143.606 172.285 C 143.606 172.285 141.739 171.707 140.891 171.269 C 139.459 170.529 138.192 169.485 136.983 168.419 C 135.729 167.313 133.543 164.769 133.543 164.769 C 133.543 164.769 131.558 162.043 129.719 159.125 C 128.236 156.772 126.903 154.261 126.358 153.204 C 121.773 144.298 114.745 125.492 114.745 125.492 C 114.745 125.492 111.016 116.468 108.532 112.283 C 106.706 109.208 105.06 106.537 102.193 103.624 C 100.101 101.499 97.137 99.25 92.268 96.633 C 76.238 88.018 59.205 92.363 50.673 91.29 C 45.304 90.614 40 88.012 35.981 84.389 C 35.591 84.039 31.077 80.013 28.797 75.328 C 26.782 71.19 25.645 67.118 25.645 67.118 C 25.645 67.118 23.703 61.167 23.592 55.482 C 23.519 51.736 24.219 48.113 24.624 46.413 C 25.042 44.662 26.865 37.552 31.974 33.742 C 37.088 29.929 45.023 29.448 46.756 29.431 C 52.301 29.376 57.418 29.323 57.418 29.323 C 57.418 29.323 63.469 29.795 65.691 27.963 C 67.607 26.384 67.865 23.977 67.987 21.498 C 68.139 18.416 67.968 15.052 66.441 12.372 C 64.999 9.84 62.237 7.328 59.722 5.86 C 58.25 5.001 55.48 3.439 52.669 2.657 C 49.725 1.838 46.736 1.817 45.243 1.761 C 43.707 1.703 40.011 2.25 36.336 3.88 C 32.99 5.362 29.662 7.876 28.016 9.048 Z" stroke=" rgb(0, 0, 0)" fill-rule=" nonzero" fill=" rgb(255, 255, 255)" id="svg_6" style=""/>
      </g>
    </g>
  </g>
</svg>
