<?xml version="1.0" encoding="utf-8"?>
<svg viewBox="0.612 1.057 498.722 498.351" width="498.722" height="498.351" xmlns="http://www.w3.org/2000/svg">
  <clipPath id="p.0">
    <path d="m0,0l960,0l0,960l-960,0l0,-960z" clip-rule="nonzero" id="svg_1"/>
  </clipPath>
  <circle stroke-dasharray="5,2,2,2,2,2" stroke-width="0" transform="matrix(1, 0, 0, 0.999256, -228.535004, -173.779007)" cx="478.508" cy="424.327" r="249.361" stroke=" rgb(0, 0, 0)" fill=" rgb(0, 85, 210)" id="svg_2"/>
  <g stroke-width="0" clip-path="url(#p.0)" transform="matrix(0.406988, 0, 0.000593, 0.339634, 80.021049, 67.261429)" id="svg_3" style="">
    <g transform="matrix(3.99391 0 0 3.90574 39.1559 45.7375)" id="svg_4">
      <g transform="matrix(1, 0, 0, 1, -1.131865, -6.228964)" id="svg_5">
        <path d="M 31.713 10.677 C 28.987 12.618 26.365 14.802 24.259 17.403 C 20.202 22.414 17.323 28.314 14.576 34.147 C 11.555 40.562 9.18 47.289 7.164 54.087 C 5.901 58.347 4.874 62.694 4.246 67.093 C 3.53 72.108 3.292 82.26 3.292 82.26 L 4.363 99.444 C 4.363 99.444 5.789 113.342 6.794 120.252 C 7.686 126.383 8.537 132.539 9.987 138.562 C 11.678 145.588 14.522 152.293 16.389 159.274 C 18.199 166.04 25.035 190.096 25.407 197.593 C 25.927 208.093 23.924 218.456 23.924 218.456 L 19.364 234.025 C 19.364 234.025 18.583 235.953 19.316 236.963 C 19.814 237.649 20.852 237.695 20.852 237.695 L 34.031 237.991 C 34.031 237.991 37.418 238.121 39.354 236.875 C 41.1 235.751 44.166 223.282 44.463 221.145 C 45.414 214.302 45.832 201.602 45.832 201.602 L 60.067 204.713 C 60.067 204.713 74.158 206.347 74.206 206.347 C 74.254 206.347 86.213 206.347 86.261 206.347 C 86.286 206.347 94.381 206.488 101.405 204.603 C 107.878 202.866 113.326 199.091 113.326 199.091 C 113.326 199.091 112.796 208.072 112.961 212.561 C 113.189 218.766 114.412 229.276 115.118 234.971 C 115.416 237.378 115.176 237.395 116.177 238.269 C 117.017 239.002 118.966 238.896 118.966 238.896 L 133.637 238.769 C 133.637 238.769 135.146 238.463 135.904 237.627 C 136.739 236.707 136.693 235.027 136.693 235.027 L 135.516 221.767 L 135.307 199.956 C 135.307 199.956 144.275 214.229 150.182 220.143 C 153.375 223.34 155.273 224.838 160.901 228.897 C 166.297 232.789 172.202 236.04 173.921 236.59 C 177.73 237.808 182.774 238.622 186.621 239.275 C 189.288 239.727 194.515 239.548 195.502 237.029 C 197.905 230.899 181.821 227.772 175.925 222.273 C 171.641 218.277 167.714 212.172 164.637 207.186 C 160.975 201.252 156.33 190.154 156.33 190.154 L 141.884 155.682 C 141.884 155.682 134.996 140.518 129.853 134.076 C 125.402 128.501 120.281 123.02 113.924 119.781 C 105.886 115.686 96.411 115.236 87.46 114.113 C 79.092 113.063 70.373 115.13 62.179 113.134 C 55.64 111.541 48.903 109.056 43.903 104.55 C 39.064 100.189 33.856 87.818 33.808 87.818 C 33.76 87.818 29.742 78.644 28.958 73.745 C 28.094 68.347 28.507 62.626 29.775 57.309 C 30.295 55.129 32.562 46.285 38.919 41.546 C 45.281 36.803 55.152 36.205 57.306 36.183 C 64.205 36.114 70.57 36.049 70.57 36.049 C 70.57 36.049 78.099 36.636 80.862 34.358 C 83.245 32.393 83.566 29.399 83.718 26.314 C 83.906 22.48 83.695 18.296 81.795 14.961 C 80.001 11.812 76.566 8.687 73.436 6.861 C 69.688 4.674 69.52 4.274 65.258 3.459 C 62.692 2.968 59.057 1.898 55.425 1.761 C 51.774 1.624 48.127 2.422 45.576 3.045 C 40.452 4.296 36.01 7.618 31.713 10.677 Z" stroke=" rgb(0, 0, 0)" fill-rule=" nonzero" fill=" rgb(255, 255, 255)" id="svg_6"/>
      </g>
    </g>
  </g>
</svg>